<svg xmlns="http://www.w3.org/2000/svg" viewBox="0 0 64 64">
  <defs>
    <linearGradient id="bg" x1="8" y1="6" x2="56" y2="58" gradientUnits="userSpaceOnUse">
      <stop offset="0" stop-color="#f47aaa"/>
      <stop offset="0.52" stop-color="#d84f86"/>
      <stop offset="1" stop-color="#7d2c59"/>
    </linearGradient>
    <linearGradient id="shine" x1="18" y1="14" x2="46" y2="50" gradientUnits="userSpaceOnUse">
      <stop stop-color="#ffffff"/>
      <stop offset="1" stop-color="#ffe5f0"/>
    </linearGradient>
    <filter id="shadow" x="-25%" y="-25%" width="150%" height="150%">
      <feDropShadow dx="0" dy="3" stdDeviation="3" flood-color="#58203f" flood-opacity=".35"/>
    </filter>
  </defs>

  <rect x="3" y="3" width="58" height="58" rx="17" fill="url(#bg)" filter="url(#shadow)"/>
  <path d="M12 20C20 9 39 7 53 15" fill="none" stroke="#ffffff" stroke-opacity=".2" stroke-width="3" stroke-linecap="round"/>

  <g fill="url(#shine)">
    <rect x="15" y="36" width="7" height="13" rx="3.5"/>
    <rect x="28.5" y="29" width="7" height="20" rx="3.5"/>
    <rect x="42" y="20" width="7" height="29" rx="3.5"/>
  </g>

  <path d="M17.5 29.5 31 22l8 3.5L49 15" fill="none" stroke="#ffffff" stroke-width="4" stroke-linecap="round" stroke-linejoin="round"/>
  <circle cx="17.5" cy="29.5" r="3.5" fill="#ffffff"/>
  <circle cx="31" cy="22" r="3.5" fill="#ffffff"/>
  <circle cx="39" cy="25.5" r="3.5" fill="#ffffff"/>
  <circle cx="49" cy="15" r="3.5" fill="#ffffff"/>
</svg>
